<?xml version="1.0" standalone="no"?>
<!DOCTYPE svg PUBLIC "-//W3C//DTD SVG 20010904//EN"
 "http://www.w3.org/TR/2001/REC-SVG-20010904/DTD/svg10.dtd">
<svg version="1.0" xmlns="http://www.w3.org/2000/svg"
 width="16.000000pt" height="16.000000pt" viewBox="0 0 16.000000 16.000000"
 preserveAspectRatio="xMidYMid meet">
<metadata>
Created by potrace 1.11, written by Peter Selinger 2001-2013
</metadata>
<g transform="translate(0.000000,16.000000) scale(0.002041,-0.002041)"
fill="#000000" stroke="none">
<path d="M3426 6402 c-285 -697 -533 -1292 -551 -1322 -18 -30 -37 -70 -43
-88 -6 -18 -20 -45 -31 -61 -11 -15 -23 -39 -26 -54 l-7 -27 -1382 0 -1381 0
345 -342 c1322 -1312 1590 -1574 1640 -1603 19 -11 42 -24 52 -30 36 -19 22
-124 -136 -1096 -85 -519 -176 -1072 -201 -1229 -25 -157 -48 -293 -51 -302
-3 -10 -1 -18 4 -18 6 0 508 268 1117 595 609 327 1117 597 1129 601 11 4 34
17 49 30 41 35 84 31 147 -12 79 -54 2132 -1275 2140 -1272 3 2 -17 149 -46
328 -29 179 -87 541 -129 805 -42 264 -110 689 -151 945 -44 280 -74 495 -74
540 l0 75 44 18 c36 15 221 199 996 990 l952 972 -1353 5 -1353 5 -23 34 c-13
19 -26 46 -28 60 -5 27 -19 68 -50 156 -10 28 -171 415 -357 860 -187 446
-423 1011 -526 1257 -103 246 -189 448 -192 448 -3 0 -238 -571 -524 -1268z"/>
</g>
</svg>
